<svg xmlns="http://www.w3.org/2000/svg" viewBox="0 0 360 52.11"><path d="M7.63,33.3a11.52,11.52,0,0,0,9.19,11.29,12,12,0,0,0,2.33.23A11.52,11.52,0,0,0,30.67,33.3c0-11.4-11.47-12-17.21-19A17.23,17.23,0,0,1,9.84,4h4.4c.25,3.82,1.37,6.89,4.74,9.49,4.48,3.45,9.35,5,12.85,9.72A16.46,16.46,0,0,1,35.07,33.3,15.92,15.92,0,0,1,5.58,41.63,15.8,15.8,0,0,1,3.23,33.3Z" style="fill:#fff"/><path d="M47.89,4H77.76V8.44H47.89Zm0,24.28v-4.4H73.36v4.4ZM77.76,48.18H47.89v-4.4H77.76Z" style="fill:#fff"/><path d="M114.45,4h1.08a6.48,6.48,0,0,1,6.09,4.07L138.3,48.19h-4.76l-16-38.4a2.1,2.1,0,0,0-2-1.36h-2.16a2.09,2.09,0,0,0-2,1.36l-16,38.4H90.59L107.28,8.1A6.46,6.46,0,0,1,113.37,4Z" style="fill:#fff"/><path d="M151.1,4h35.33V8.44H171V48.18h-4.41V8.44H151.1Z" style="fill:#fff"/><path d="M167.06,4h35.33V8.44H186.92V48.18h-4.4V8.44H167.06Z" style="fill:#fff"/><path d="M215.19,31.26v-4.4H232a9.21,9.21,0,0,0,0-18.42H215.19V4H232a13.61,13.61,0,0,1,2.7,27,10.06,10.06,0,0,1-1.12.18l6.65,11.52a2.16,2.16,0,0,0,1.91,1.1h3.47v4.4h-3.47a6.44,6.44,0,0,1-5.72-3.3l-7.23-12.52a2.15,2.15,0,0,0-1.91-1.1H215.19Z" style="fill:#fff"/><path d="M258.42,26.05a23.17,23.17,0,1,1,23.17,23.17A23.17,23.17,0,0,1,258.42,26.05Zm41.94,0a18.77,18.77,0,1,0-18.77,18.77A18.77,18.77,0,0,0,300.36,26.05Z" style="fill:#fff"/><path d="M317.57,4h8.21a6.49,6.49,0,0,1,6.07,4l12,28h0l2.73,6.39a2.08,2.08,0,0,0,2,1.33h3.81V4h4.4V48.18h-8.21a6.48,6.48,0,0,1-6.07-4l-12-28h0L327.8,9.77a2.09,2.09,0,0,0-2-1.34h-8.21ZM322,48.18V17.24h-4.4V48.18Z" style="fill:#fff"/></svg>