<svg xmlns="http://www.w3.org/2000/svg" viewBox="0 0 360 183.99"><path d="M122.74,96a6.35,6.35,0,0,0,5.08,6.24,6.21,6.21,0,0,0,1.29.13A6.37,6.37,0,0,0,135.48,96c0-6.3-6.34-6.66-9.52-10.5a9.59,9.59,0,0,1-2-5.68h2.43A6.59,6.59,0,0,0,129,85.07c2.48,1.9,5.17,2.77,7.11,5.37A9.12,9.12,0,0,1,137.91,96a8.84,8.84,0,0,1-5.67,8.23,8.8,8.8,0,0,1-10.63-3.62,8.73,8.73,0,0,1-1.3-4.61Z" style="fill:#292627"/><path d="M145,79.82h16.51v2.44H145Zm0,13.42V90.81h14.08v2.43Zm16.51,11H145v-2.44h16.51Z" style="fill:#292627"/><path d="M181.79,79.82h.6a3.6,3.6,0,0,1,3.37,2.25L195,104.23h-2.64L183.51,83a1.16,1.16,0,0,0-1.12-.75h-1.2a1.16,1.16,0,0,0-1.12.75l-8.83,21.23h-2.63l9.22-22.16a3.57,3.57,0,0,1,3.36-2.25Z" style="fill:#292627"/><path d="M202.05,79.82h19.54v2.44H213v22H210.6v-22h-8.55Z" style="fill:#292627"/><path d="M210.87,79.82h19.54v2.44h-8.55v22h-2.44v-22h-8.55Z" style="fill:#292627"/><path d="M237.48,94.87V92.44h9.31a5.1,5.1,0,0,0,0-10.19h-9.31V79.82h9.31a7.53,7.53,0,0,1,1.49,14.9l-.62.1,3.68,6.37a1.19,1.19,0,0,0,1,.6h1.92v2.44h-1.92a3.57,3.57,0,0,1-3.16-1.83l-4-6.92a1.17,1.17,0,0,0-1-.61h-6.7Z" style="fill:#292627"/><path d="M261.38,92a12.81,12.81,0,1,1,12.81,12.8A12.81,12.81,0,0,1,261.38,92Zm23.19,0a10.38,10.38,0,1,0-10.38,10.37A10.38,10.38,0,0,0,284.57,92Z" style="fill:#292627"/><path d="M294.08,79.82h4.54A3.59,3.59,0,0,1,302,82l6.61,15.49h0l1.51,3.53a1.15,1.15,0,0,0,1.11.74h2.11v-22h2.43v24.41h-4.54a3.57,3.57,0,0,1-3.35-2.22l-6.62-15.49h0L299.74,83a1.17,1.17,0,0,0-1.12-.74h-4.54Zm2.44,24.41V87.12h-2.44v17.11Z" style="fill:#292627"/><path d="M88,124.19a96.69,96.69,0,0,1-14.22-11.84q-3.25-3.31-6.29-6.87c-2-2.4-3.86-4.88-5.68-7.41s-3.47-5.19-5.05-7.89-3.1-5.44-4.44-8.26a116.76,116.76,0,0,1-6.74-17.51L44.25,59.8l4.75,0c4.71,0,9.41.11,14.12.27l7.05.21c2.35.06,4.71.22,7.06.33l1.43.06.68.94a40.9,40.9,0,0,0,5.09,5.62,37.36,37.36,0,0,0,6.17,4.6,42.88,42.88,0,0,0,14.86,5.49,33.17,33.17,0,0,1-8.26-.22,36.49,36.49,0,0,1-8.12-2.21,38.17,38.17,0,0,1-7.5-4.08,37,37,0,0,1-6.46-5.73l2.11,1c-2.35.11-4.71.27-7.06.33l-7.05.21c-4.71.16-9.41.23-14.12.27l3.39-4.57A157.19,157.19,0,0,0,66.77,94.9a170.44,170.44,0,0,0,9.87,15C80.19,114.81,84.05,119.5,88,124.19Z" style="fill:#00b1d4"/></svg>