<svg xmlns="http://www.w3.org/2000/svg" viewBox="0 0 360 85.37"><path d="M105.44,47.9A8.29,8.29,0,0,0,112.05,56a8.63,8.63,0,0,0,1.68.17A8.3,8.3,0,0,0,122,47.9c0-8.21-8.25-8.67-12.39-13.67a12.44,12.44,0,0,1-2.6-7.4h3.17a8.55,8.55,0,0,0,3.41,6.83c3.23,2.49,6.73,3.61,9.25,7a11.84,11.84,0,0,1,2.33,7.24,11.46,11.46,0,1,1-22.92,0Z" style="fill:#fff"/><path d="M134.42,26.83h21.5V30h-21.5Zm0,17.48V41.14h18.33v3.17Zm21.5,14.3h-21.5V55.44h21.5Z" style="fill:#fff"/><path d="M182.33,26.83h.78a4.68,4.68,0,0,1,4.39,2.93l12,28.86h-3.43L184.57,31a1.5,1.5,0,0,0-1.46-1h-1.56a1.5,1.5,0,0,0-1.46,1l-11.5,27.64h-3.43l12-28.86a4.67,4.67,0,0,1,4.38-2.93Z" style="fill:#fff"/><path d="M208.72,26.83h25.43V30H223v28.6h-3.17V30H208.72Z" style="fill:#fff"/><path d="M220.2,26.83h25.44V30H234.51v28.6h-3.17V30H220.2Z" style="fill:#fff"/><path d="M254.85,46.43V43.26H267A6.63,6.63,0,0,0,267,30H254.85V26.83H267a9.8,9.8,0,0,1,1.95,19.4,7.58,7.58,0,0,1-.81.13l4.78,8.29a1.54,1.54,0,0,0,1.38.8h2.49v3.16h-2.49a4.64,4.64,0,0,1-4.12-2.37l-5.2-9a1.57,1.57,0,0,0-1.38-.79h-8.72Z" style="fill:#fff"/><path d="M286,42.69a16.68,16.68,0,1,1,16.68,16.67A16.68,16.68,0,0,1,286,42.69Zm30.19,0A13.51,13.51,0,1,0,302.65,56.2,13.51,13.51,0,0,0,316.16,42.69Z" style="fill:#fff"/><path d="M328.55,26.83h5.91a4.66,4.66,0,0,1,4.37,2.89l8.62,20.17h0l2,4.6a1.52,1.52,0,0,0,1.46,1h2.74V26.83h3.17V58.61h-5.91a4.67,4.67,0,0,1-4.37-2.88l-8.61-20.17h0l-2-4.6a1.51,1.51,0,0,0-1.46-1h-5.91Zm3.17,31.78V36.34h-3.17V58.61Z" style="fill:#fff"/><path d="M60.25,84.61A125.37,125.37,0,0,1,41.74,69.19c-2.83-2.87-5.57-5.86-8.19-8.95s-5-6.35-7.41-9.65-4.51-6.76-6.56-10.27-4-7.08-5.78-10.76A152.48,152.48,0,0,1,5,6.76L3.23.77l6.19,0c6.13.05,12.25.13,18.38.35L37,1.44c3.06.08,6.12.29,9.19.42L48,2l.89,1.22a52.57,52.57,0,0,0,6.62,7.32,48.48,48.48,0,0,0,8,6,55.85,55.85,0,0,0,19.35,7.15,43.08,43.08,0,0,1-10.75-.29,47.74,47.74,0,0,1-10.57-2.87,50.09,50.09,0,0,1-9.77-5.32,48.87,48.87,0,0,1-8.42-7.47L46.18,9c-3.07.14-6.13.35-9.19.42l-9.19.28c-6.13.21-12.25.3-18.38.35l4.41-5.94A204.82,204.82,0,0,0,32.56,46.47,221.81,221.81,0,0,0,45.41,66C50,72.4,55.06,78.5,60.25,84.61Z" style="fill:#00b1d4"/></svg>