<svg xmlns="http://www.w3.org/2000/svg" viewBox="0 0 360 116.08"><path d="M46.89,63.64A8.91,8.91,0,0,0,54,72.35a9,9,0,0,0,1.8.18,8.89,8.89,0,0,0,8.89-8.89c0-8.81-8.85-9.31-13.29-14.67A13.3,13.3,0,0,1,48.6,41H52a9.15,9.15,0,0,0,3.66,7.32c3.46,2.67,7.22,3.87,9.93,7.5a12.76,12.76,0,0,1,2.49,7.78,12.23,12.23,0,0,1-2,6.71,12.3,12.3,0,0,1-20.78-.28,12.25,12.25,0,0,1-1.81-6.43Z"/><path d="M78,41h23.06v3.4H78Zm0,18.74v-3.4H97.65v3.4Zm23.06,15.35H78V71.72h23.06Z"/><path d="M129.38,41h.83a5,5,0,0,1,4.71,3.13l12.88,31h-3.68L131.78,45.48a1.61,1.61,0,0,0-1.57-1h-1.67a1.61,1.61,0,0,0-1.56,1L114.64,75.13H111l12.88-31a5,5,0,0,1,4.7-3.13Z"/><path d="M157.69,41H185v3.4H173V75.13h-3.4V44.44H157.69Z"/><path d="M170,41h27.28v3.4H185.35V75.13H182V44.44H170Z"/><path d="M207.17,62.06v-3.4h13a7.12,7.12,0,0,0,0-14.23h-13V41h13a10.51,10.51,0,0,1,2.09,20.81c-.29,0-.58.1-.87.13l5.14,8.9a1.65,1.65,0,0,0,1.47.85h2.68v3.4H228a5,5,0,0,1-4.42-2.55L218,62.91a1.66,1.66,0,0,0-1.47-.85h-9.36Z"/><path d="M240.56,58a17.89,17.89,0,1,1,17.89,17.89A17.89,17.89,0,0,1,240.56,58Zm32.38,0a14.5,14.5,0,1,0-14.49,14.49A14.49,14.49,0,0,0,272.94,58Z"/><path d="M286.23,41h6.34a5,5,0,0,1,4.69,3.09l9.24,21.64h0l2.11,4.93a1.62,1.62,0,0,0,1.56,1h2.94V41h3.4V75.13h-6.34a5,5,0,0,1-4.68-3.1L296.24,50.4h0l-2.11-4.94a1.61,1.61,0,0,0-1.56-1h-6.34Zm3.4,34.09V51.24h-3.4V75.13Z"/></svg>